<svg xmlns="http://www.w3.org/2000/svg" viewBox="0 0 94.4 142">
  <defs>
    <mask id="mask">
      <path fill="#fff" d="M94.4 2.9S76.6 0 48.2 0 1.9 2.9 1.9 2.9c-4.1 18-6.3 111 46.3 141.8C101 113.7 98.4 20 94.4 3Z" />
      <path fill="#000" d="m73.8 76.4-1.5-.8.6 1.6-1.2-.7.3.8c-1.9 1.9-10.5-9.5-23.6 2.7-1.3 1.2-1.4 1.6-3 0-10.5-10.7-22.7-2-22.7-2l-.7-.5.4-1-1 .7.7-1.9-1.7.9.6-1.4-1 .4 7-17.4c9.5-8.4 20.5-.4 20.5-.4s11.8-8.4 20 .3l6.7 17.5-1-.4.7 1.6Z" />
    </mask>
  </defs>
  <path fill="#2c3e50" d="M94.4 2.9S76.6 0 48.2 0 1.9 2.9 1.9 2.9c-4.1 18-6.3 111 46.3 141.8C101 113.7 98.4 20 94.4 3Z" mask="url(#mask)" />
</svg> 